<svg width="82" height="95" viewBox="0 0 82 95" fill="none" xmlns="http://www.w3.org/2000/svg">
<path d="M0.645833 95V83.6068L10.737 81.6536V13.6198L0.645833 11.6667V0.208348H42.7682C53.9227 0.208348 62.625 2.37849 68.875 6.71876C75.125 11.059 78.25 17.5478 78.25 26.1849C78.25 30.5686 77.0781 34.4965 74.7344 37.9688C72.434 41.3976 69.0703 43.98 64.6432 45.7162C70.329 46.9314 74.5825 49.5356 77.4036 53.5287C80.2682 57.5217 81.7005 62.1441 81.7005 67.3958C81.7005 76.467 78.7057 83.3464 72.7161 88.0339C66.7266 92.678 58.2413 95 47.2604 95H0.645833ZM29.7474 39.9219H43.4193C48.4974 39.9219 52.4036 38.8802 55.138 36.7969C57.8724 34.7136 59.2396 31.6754 59.2396 27.6823C59.2396 19.132 53.7491 14.8568 42.7682 14.8568H29.7474V39.9219ZM29.7474 80.4167H47.2604C57.5903 80.4167 62.7552 76.0764 62.7552 67.3958C62.7552 62.7517 61.6267 59.2144 59.3698 56.7839C57.1128 54.3099 53.5538 53.0729 48.6927 53.0729H29.7474V80.4167Z" fill="black"/>
</svg>

