<svg width="50" height="93" viewBox="0 0 50 93" fill="none" xmlns="http://www.w3.org/2000/svg">
<path d="M24 14.0667L24.4 11C24.4 9.57779 23.7778 8.51112 22.5333 7.80001C21.3778 7.0889 18.9778 6.42223 15.3333 5.80001L16.1333 0.600012H49.7333L49.3333 5.80001L40.8 7.40001C38.9333 7.75557 37.8222 8.91112 37.4667 10.8667L25.3333 79.4C25.0667 80.8222 24.9333 81.9778 24.9333 82.8667C24.9333 84.9111 26.1333 86.1556 28.5333 86.6L34.8 87.8L34.1333 93H0.933333V87.8C5.73333 87 8.71111 86.1111 9.86667 85.1333C11.0222 84.1556 11.8667 82.2889 12.4 79.5333L24 14.0667Z" fill="black"/>
</svg>

