<svg width="156" height="111" viewBox="0 0 156 111" fill="none" xmlns="http://www.w3.org/2000/svg">
<rect x="31" y="7" width="125" height="13" rx="6.5" fill="black"/>
<rect x="31" y="50" width="125" height="13" rx="6.5" fill="black"/>
<rect x="31" y="93" width="125" height="13" rx="6.5" fill="black"/>
<path d="M0.836 20L0.62 18.596C1.988 18.38 2.912 18.128 3.392 17.84C3.872 17.552 4.112 17.12 4.112 16.544V5.492C4.112 4.292 4.052 3.572 3.932 3.332C3.836 3.092 3.548 2.972 3.068 2.972C2.612 2.972 1.808 3.032 0.656 3.152L0.368 1.784C1.088 1.472 2.168 1.16 3.608 0.848C5.048 0.512 6.164 0.331999 6.956 0.307998L7.352 0.668V17.408C7.352 17.696 7.412 17.888 7.532 17.984C7.676 18.056 7.856 18.116 8.072 18.164L10.844 18.596L10.7 20H0.836ZM18.4586 18.092C18.4586 18.716 18.2546 19.244 17.8466 19.676C17.4386 20.108 16.9106 20.324 16.2626 20.324C15.6146 20.324 15.0866 20.144 14.6786 19.784C14.2706 19.4 14.0666 18.884 14.0666 18.236C14.0666 17.564 14.2586 17.012 14.6426 16.58C15.0506 16.148 15.5786 15.932 16.2266 15.932C17.7146 15.932 18.4586 16.652 18.4586 18.092ZM0.08 63V61.092C4.304 57.66 6.8 55.488 7.568 54.576C8.84 53.088 9.572 51.996 9.764 51.3C9.956 50.604 10.052 49.956 10.052 49.356C10.052 48.108 9.692 47.076 8.972 46.26C8.252 45.444 7.28 45.036 6.056 45.036C4.832 45.036 3.992 45.216 3.536 45.576C3.248 45.816 2.972 47.112 2.708 49.464L0.764 49.248C0.572 48.384 0.476 47.484 0.476 46.548C0.476 45.612 0.488 45.024 0.512 44.784C1.904 43.68 3.812 43.128 6.236 43.128C8.684 43.128 10.508 43.644 11.708 44.676C12.932 45.708 13.544 47.112 13.544 48.888C13.544 50.64 12.8 52.404 11.312 54.18C9.824 55.956 7.46 57.96 4.22 60.192L4.292 60.444L6.452 60.372C9.548 60.276 11.288 60.192 11.672 60.12C12.08 60.024 12.536 59.088 13.04 57.312L14.696 57.456C14.72 57.672 14.732 58.032 14.732 58.536C14.732 60.192 14.54 61.68 14.156 63H0.08ZM22.7476 61.092C22.7476 61.716 22.5436 62.244 22.1356 62.676C21.7276 63.108 21.1996 63.324 20.5516 63.324C19.9036 63.324 19.3756 63.144 18.9676 62.784C18.5596 62.4 18.3556 61.884 18.3556 61.236C18.3556 60.564 18.5476 60.012 18.9316 59.58C19.3396 59.148 19.8676 58.932 20.5156 58.932C22.0036 58.932 22.7476 59.652 22.7476 61.092ZM0.98 110.968L0.8 108.952C3.872 108.544 6.308 107.788 8.108 106.684C9.932 105.604 10.844 104.212 10.844 102.508C10.844 101.38 10.424 100.48 9.584 99.808C8.744 99.136 7.472 98.8 5.768 98.8C5.12 98.8 4.496 98.848 3.896 98.944L4.004 97.216C6.092 96.88 7.616 96.22 8.576 95.236C9.536 94.228 10.016 93.136 10.016 91.96C10.016 90.784 9.668 89.836 8.972 89.116C8.3 88.396 7.376 88.036 6.2 88.036C4.64 88.036 3.704 88.312 3.392 88.864C3.104 89.32 2.9 90.52 2.78 92.464L0.872 92.248C0.656 91.168 0.548 90.22 0.548 89.404C0.548 88.564 0.56 88.024 0.584 87.784C2.264 86.68 4.196 86.128 6.38 86.128C8.564 86.128 10.28 86.572 11.528 87.46C12.8 88.348 13.436 89.476 13.436 90.844C13.436 92.212 13.1 93.364 12.428 94.3C11.756 95.236 10.904 95.944 9.872 96.424L9.908 96.712C11.276 96.976 12.404 97.528 13.292 98.368C14.18 99.208 14.624 100.348 14.624 101.788C14.624 104.188 13.364 106.216 10.844 107.872C8.324 109.528 5.036 110.56 0.98 110.968ZM22.607 104.092C22.607 104.716 22.403 105.244 21.995 105.676C21.587 106.108 21.059 106.324 20.411 106.324C19.763 106.324 19.235 106.144 18.827 105.784C18.419 105.4 18.215 104.884 18.215 104.236C18.215 103.564 18.407 103.012 18.791 102.58C19.199 102.148 19.727 101.932 20.375 101.932C21.863 101.932 22.607 102.652 22.607 104.092Z" fill="black"/>
</svg>

