<svg width="159" height="174" viewBox="0 0 159 174" fill="none" xmlns="http://www.w3.org/2000/svg">
<path d="M43 29H115C119.855 29 122.994 29.0106 125.306 29.3215C127.475 29.6131 128.155 30.0838 128.536 30.4645C128.916 30.8451 129.387 31.5248 129.678 33.6935C129.989 36.0061 130 39.1446 130 44V154C130 158.855 129.989 161.994 129.678 164.306C129.387 166.475 128.916 167.155 128.536 167.536C128.155 167.916 127.475 168.387 125.306 168.678C122.994 168.989 119.855 169 115 169H43C38.1446 169 35.0061 168.989 32.6935 168.678C30.5248 168.387 29.8451 167.916 29.4645 167.536C29.0838 167.155 28.6131 166.475 28.3215 164.306C28.0106 161.994 28 158.855 28 154V44C28 39.1446 28.0106 36.0061 28.3215 33.6935C28.6131 31.5248 29.0838 30.8451 29.4645 30.4645C29.8451 30.0838 30.5248 29.6131 32.6935 29.3215C35.0061 29.0106 38.1446 29 43 29Z" fill="white" stroke="black" stroke-width="10"/>
<path d="M0 96C0 84.9543 8.95431 76 20 76H139C150.046 76 159 84.9543 159 96V122H0V96Z" fill="black"/>
<ellipse cx="140.5" cy="95" rx="9.5" ry="9" fill="white"/>
<rect x="112" y="31" width="19" height="15" fill="black"/>
<rect x="119" y="24.2642" width="31.7756" height="21.5858" transform="rotate(-49.7833 119 24.2642)" fill="#FFFBFB"/>
</svg>

