<svg width="145" height="70" viewBox="0 0 145 70" fill="none" xmlns="http://www.w3.org/2000/svg">
<mask id="path-1-inside-1" fill="white">
<path fill-rule="evenodd" clip-rule="evenodd" d="M143.668 60.262C143.993 58.6249 144.161 56.956 144.161 55.262C144.161 33.7229 117.074 16.262 83.6608 16.262C50.2475 16.262 23.1608 33.7229 23.1608 55.262C23.1608 56.956 23.3283 58.6249 23.6533 60.262C27.4607 41.0842 52.8755 26.262 83.6608 26.262C114.446 26.262 139.861 41.0842 143.668 60.262Z"/>
</mask>
<path fill-rule="evenodd" clip-rule="evenodd" d="M143.668 60.262C143.993 58.6249 144.161 56.956 144.161 55.262C144.161 33.7229 117.074 16.262 83.6608 16.262C50.2475 16.262 23.1608 33.7229 23.1608 55.262C23.1608 56.956 23.3283 58.6249 23.6533 60.262C27.4607 41.0842 52.8755 26.262 83.6608 26.262C114.446 26.262 139.861 41.0842 143.668 60.262Z" fill="black"/>
<path d="M143.668 60.262L142.687 60.4567L144.649 60.4567L143.668 60.262ZM23.6533 60.262L22.6725 60.4567L24.6342 60.4567L23.6533 60.262ZM143.161 55.262C143.161 56.8897 143 58.4934 142.687 60.0672L144.649 60.4567C144.987 58.7564 145.161 57.0223 145.161 55.262H143.161ZM83.6608 17.262C100.204 17.262 115.135 21.5864 125.899 28.5253C136.673 35.4709 143.161 44.9467 143.161 55.262H145.161C145.161 44.0381 138.105 34.014 126.983 26.8443C115.85 19.6679 100.531 15.262 83.6608 15.262V17.262ZM24.1608 55.262C24.1608 44.9467 30.6481 35.4709 41.4226 28.5253C52.1867 21.5864 67.1174 17.262 83.6608 17.262V15.262C66.7909 15.262 51.4716 19.6679 40.339 26.8443C29.2168 34.014 22.1608 44.0381 22.1608 55.262H24.1608ZM24.6342 60.0672C24.3217 58.4934 24.1608 56.8897 24.1608 55.262H22.1608C22.1608 57.0223 22.3349 58.7564 22.6725 60.4567L24.6342 60.0672ZM24.6342 60.4567C26.463 51.2448 33.5143 42.9524 44.0366 36.9385C54.5456 30.9322 68.4207 27.262 83.6608 27.262V25.262C68.1156 25.262 53.8906 29.0029 43.0441 35.2021C32.2108 41.3938 24.651 50.1014 22.6725 60.0672L24.6342 60.4567ZM83.6608 27.262C98.9008 27.262 112.776 30.9322 123.285 36.9385C133.807 42.9524 140.859 51.2448 142.687 60.4567L144.649 60.0672C142.671 50.1014 135.111 41.3938 124.277 35.2021C113.431 29.0029 99.206 25.262 83.6608 25.262V27.262Z" fill="black" mask="url(#path-1-inside-1)"/>
<path d="M33.0063 9.61985L79.5364 50.886L15.4395 69.2801L33.0063 9.61985Z" fill="black"/>
</svg>

