<svg width="137" height="143" viewBox="0 0 137 143" fill="none" xmlns="http://www.w3.org/2000/svg">
<path d="M22.0632 29.7853H93.7686C99.1249 29.7853 102.587 29.797 105.138 30.14C107.531 30.4617 108.281 30.981 108.7 31.4009C109.12 31.8208 109.64 32.5706 109.961 34.963C110.304 37.5141 110.316 40.9765 110.316 46.3327V120.244C110.316 125.601 110.304 129.063 109.961 131.614C109.64 134.007 109.12 134.756 108.7 135.176C108.281 135.596 107.531 136.115 105.138 136.437C102.587 136.78 99.1249 136.792 93.7686 136.792H22.0632C16.7069 136.792 13.2446 136.78 10.6935 136.437C8.30108 136.115 7.55123 135.596 7.13134 135.176C6.71145 134.756 6.19215 134.007 5.8705 131.614C5.52751 129.063 5.5158 125.601 5.5158 120.244V46.3327C5.5158 40.9765 5.52751 37.5141 5.8705 34.963C6.19215 32.5706 6.71145 31.8208 7.13134 31.4009C7.55123 30.981 8.30108 30.4617 10.6935 30.14C13.2446 29.797 16.7069 29.7853 22.0632 29.7853Z" fill="black" stroke="black" stroke-width="11.0316"/>
<rect x="91.5623" y="31.9916" width="19.8569" height="14.3411" fill="black"/>
<rect width="32.4914" height="22.1415" transform="matrix(0.652788 -0.757541 0.769589 0.63854 98.7502 24.6135)" fill="#FFFBFB"/>
<rect x="13.2379" y="40.8169" width="72.8086" height="30.8885" rx="5.5158" fill="white"/>
<ellipse cx="58.2021" cy="110.099" rx="18.2021" ry="17.099" fill="white"/>
</svg>

