<svg width="101" height="105" viewBox="0 0 101 105" fill="none" xmlns="http://www.w3.org/2000/svg">
<path d="M25.2581 91.0366C26.9116 92.2038 29.5863 93.3709 33.2823 94.5381C37.0756 95.608 41.3065 96.1429 45.9752 96.1429C50.6438 96.1429 54.5343 94.7326 57.6467 91.912C60.7592 89.0914 62.3154 85.2981 62.3154 80.5322C62.3154 73.1402 58.1331 67.1099 49.7684 62.4413C47.6286 61.3714 44.3217 59.9124 39.8476 58.0644C35.3735 56.1192 32.2124 54.7088 30.3644 53.8335C28.5164 52.8608 26.328 51.5478 23.7992 49.8943C21.3676 48.1436 19.4709 46.3928 18.1093 44.6421C14.7051 40.4598 13.0029 35.3535 13.0029 29.3232C13.0029 20.4722 16.2613 13.4693 22.7779 8.3143C29.3918 3.15936 37.951 0.581886 48.4554 0.581886C56.431 0.581886 63.9202 1.89494 70.9232 4.52105C71.215 6.85536 71.3608 9.96778 71.3608 13.8583C71.3608 17.6516 70.8259 22.7579 69.756 29.1773L61.2941 30.1985C60.2242 19.2078 58.9112 13.0802 57.355 11.8158C55.0206 9.77326 50.7411 8.75199 44.5162 8.75199C38.3886 8.75199 33.6227 10.0164 30.2185 12.5453C26.8143 14.9768 25.1122 18.5756 25.1122 23.3415C25.1122 26.0648 25.6472 28.4964 26.7171 30.6362C27.7869 32.776 29.7322 34.7699 32.5528 36.6179C35.3735 38.4659 37.6105 39.7789 39.264 40.557C41.6956 41.8215 45.0998 43.3777 49.4766 45.2257C53.8535 47.0737 57.2577 48.6785 59.6893 50.0402C62.1208 51.4019 64.747 53.2013 67.5676 55.4383C73.0143 60.0097 75.7377 66.6236 75.7377 75.28C75.7377 83.9364 72.6253 90.9394 66.4004 96.2888C60.2728 101.638 51.8596 104.313 41.1606 104.313C35.4221 104.313 29.6836 103.632 23.9451 102.271C18.3038 100.812 14.1701 99.4013 11.544 98.0396C11.2522 96.8724 11.1063 94.1004 11.1063 89.7236C11.1063 85.3467 11.6899 80.0459 12.8571 73.8211L21.1731 73.3834C21.9512 80.3863 22.5834 84.9091 23.0697 86.9516C23.6533 88.9941 24.3827 90.3558 25.2581 91.0366Z" fill="black"/>
<rect x="1.5" y="51.5" width="98" height="9" fill="black" stroke="white" stroke-width="3"/>
</svg>

