<svg width="119" height="92" viewBox="0 0 119 92" fill="none" xmlns="http://www.w3.org/2000/svg">
<path d="M1.33432 70L0.750737 64.3101C5.71116 63.532 8.48316 62.8512 9.06674 62.2676L31.9722 35.4229L11.1093 10.4749C10.3312 9.50231 9.35853 8.82147 8.19137 8.43241L2.93916 6.68168L3.52274 0.991783H32.4099L33.2853 6.68168L28.7625 7.70294C27.4981 8.092 26.8659 8.67557 26.8659 9.45368C26.8659 10.1345 27.5954 11.3503 29.0543 13.101L40.58 26.961L51.9598 12.8093C52.6406 12.0312 52.9811 11.253 52.9811 10.4749C52.9811 8.82147 50.7926 7.55705 46.4158 6.68168L47.2912 0.991783H74.4276L75.0112 6.68168C70.5371 7.36252 67.8623 8.14063 66.987 9.01599L46.124 33.6722L68.5918 60.5168C69.3699 61.4895 70.3425 62.1703 71.5097 62.5594L76.7619 64.3101L76.1783 70H47.2912L46.4158 64.3101L50.9385 63.2888C52.203 62.8998 52.8352 62.3648 52.8352 61.684C52.8352 60.9059 52.1057 59.6415 50.6467 57.8907L37.2244 41.8423L23.8021 58.1825C23.1213 58.9606 22.7808 59.7387 22.7808 60.5168C22.7808 62.1703 24.9693 63.4347 29.3461 64.3101L28.4707 70H1.33432Z" fill="black"/>
<path d="M82.6642 92V87.2933C93.084 78.8272 99.2412 73.4693 101.136 71.2195C104.274 67.5489 106.079 64.8551 106.553 63.1382C107.026 61.4213 107.263 59.8228 107.263 58.3427C107.263 55.2641 106.375 52.7184 104.599 50.7054C102.823 48.6925 100.425 47.6861 97.4059 47.6861C94.3865 47.6861 92.3144 48.1301 91.1895 49.0181C90.479 49.6102 89.7982 52.8072 89.147 58.6091L84.3515 58.0763C83.8778 55.945 83.641 53.7248 83.641 51.4159C83.641 49.1069 83.6706 47.6565 83.7298 47.0644C87.1636 44.341 91.8703 42.9794 97.8499 42.9794C103.889 42.9794 108.388 44.2522 111.348 46.798C114.368 49.3438 115.877 52.8072 115.877 57.1882C115.877 61.5101 114.042 65.8616 110.371 70.2427C106.701 74.6237 100.869 79.5672 92.8768 85.0732L93.0544 85.6948L98.3827 85.5172C106.02 85.2804 110.312 85.0732 111.26 84.8956C112.266 84.6587 113.391 82.3498 114.634 77.9687L118.719 78.324C118.778 78.8568 118.808 79.7448 118.808 80.9881C118.808 85.0732 118.334 88.7438 117.387 92H82.6642Z" fill="black"/>
</svg>

