<svg width="119" height="104" viewBox="0 0 119 104" fill="none" xmlns="http://www.w3.org/2000/svg">
<path d="M1.33432 104L0.750737 98.3101C5.71116 97.532 8.48316 96.8512 9.06674 96.2676L31.9722 69.4229L11.1093 44.4749C10.3312 43.5023 9.35853 42.8215 8.19137 42.4324L2.93916 40.6817L3.52274 34.9918H32.4099L33.2853 40.6817L28.7625 41.7029C27.4981 42.092 26.8659 42.6756 26.8659 43.4537C26.8659 44.1345 27.5954 45.3503 29.0543 47.101L40.58 60.961L51.9598 46.8093C52.6406 46.0312 52.9811 45.253 52.9811 44.4749C52.9811 42.8215 50.7926 41.557 46.4158 40.6817L47.2912 34.9918H74.4276L75.0112 40.6817C70.5371 41.3625 67.8623 42.1406 66.987 43.016L46.124 67.6722L68.5918 94.5168C69.3699 95.4895 70.3425 96.1703 71.5097 96.5594L76.7619 98.3101L76.1783 104H47.2912L46.4158 98.3101L50.9385 97.2888C52.203 96.8998 52.8352 96.3648 52.8352 95.684C52.8352 94.9059 52.1057 93.6415 50.6467 91.8907L37.2244 75.8423L23.8021 92.1825C23.1213 92.9606 22.7808 93.7387 22.7808 94.5168C22.7808 96.1703 24.9693 97.4347 29.3461 98.3101L28.4707 104H1.33432Z" fill="black"/>
<path d="M82.6642 50V45.2933C93.084 36.8272 99.2412 31.4693 101.136 29.2195C104.274 25.5489 106.079 22.8551 106.553 21.1382C107.026 19.4213 107.263 17.8228 107.263 16.3427C107.263 13.2641 106.375 10.7184 104.599 8.70544C102.823 6.69252 100.425 5.68606 97.4059 5.68606C94.3865 5.68606 92.3144 6.13008 91.1895 7.01814C90.479 7.61017 89.7982 10.8072 89.147 16.6091L84.3515 16.0763C83.8778 13.945 83.641 11.7248 83.641 9.41589C83.641 7.10694 83.6706 5.65645 83.7298 5.06442C87.1636 2.34105 91.8703 0.979362 97.8499 0.979362C103.889 0.979362 108.388 2.25224 111.348 4.798C114.368 7.34376 115.877 10.8072 115.877 15.1882C115.877 19.5101 114.042 23.8616 110.371 28.2427C106.701 32.6237 100.869 37.5672 92.8768 43.0732L93.0544 43.6948L98.3827 43.5172C106.02 43.2804 110.312 43.0732 111.26 42.8956C112.266 42.6587 113.391 40.3498 114.634 35.9687L118.719 36.324C118.778 36.8568 118.808 37.7448 118.808 38.9881C118.808 43.0732 118.334 46.7438 117.387 50H82.6642Z" fill="black"/>
</svg>

