<svg width="92" height="108" viewBox="0 0 92 108" fill="none" xmlns="http://www.w3.org/2000/svg">
<path d="M67.0667 0.666675H79.3333V58C79.3333 63.8667 78.4889 69.1556 76.8 73.8667C75.2 78.4889 72.8444 82.4444 69.7333 85.7333C66.7111 88.9333 63.0667 91.3778 58.8 93.0667C54.5333 94.7556 49.7778 95.6 44.5333 95.6C33.6889 95.6 25.2 92.4444 19.0667 86.1333C13.0222 79.7333 10 70.5333 10 58.5333V0.666675H22.6667V56.5333C22.6667 65.5111 24.4444 72.4444 28 77.3333C31.6444 82.1333 37.1556 84.5333 44.5333 84.5333C52.0889 84.5333 57.7333 82.1778 61.4667 77.4667C65.2 72.6667 67.0667 65.6889 67.0667 56.5333V0.666675Z" fill="black"/>
<line y1="103.5" x2="92" y2="103.5" stroke="black" stroke-width="9"/>
</svg>

