<svg width="144" height="70" viewBox="0 0 144 70" fill="none" xmlns="http://www.w3.org/2000/svg">
<mask id="path-1-inside-1" fill="white">
<path fill-rule="evenodd" clip-rule="evenodd" d="M0.492569 60.262C0.167557 58.6249 0 56.956 0 55.262C0 33.7229 27.0868 16.262 60.5 16.262C93.9132 16.262 121 33.7229 121 55.262C121 56.956 120.832 58.6249 120.507 60.262C116.7 41.0842 91.2853 26.262 60.5 26.262C29.7147 26.262 4.29992 41.0842 0.492569 60.262Z"/>
</mask>
<path fill-rule="evenodd" clip-rule="evenodd" d="M0.492569 60.262C0.167557 58.6249 0 56.956 0 55.262C0 33.7229 27.0868 16.262 60.5 16.262C93.9132 16.262 121 33.7229 121 55.262C121 56.956 120.832 58.6249 120.507 60.262C116.7 41.0842 91.2853 26.262 60.5 26.262C29.7147 26.262 4.29992 41.0842 0.492569 60.262Z" fill="black"/>
<path d="M0.492569 60.262L1.47343 60.4567L-0.488288 60.4567L0.492569 60.262ZM120.507 60.262L121.488 60.4567L119.527 60.4567L120.507 60.262ZM1 55.262C1 56.8897 1.16097 58.4934 1.47343 60.0672L-0.488288 60.4567C-0.825855 58.7564 -1 57.0223 -1 55.262H1ZM60.5 17.262C43.9567 17.262 29.026 21.5864 18.2618 28.5253C7.48733 35.4709 1 44.9467 1 55.262H-1C-1 44.0381 6.05605 34.014 17.1782 26.8443C28.3108 19.6679 43.6301 15.262 60.5 15.262V17.262ZM120 55.262C120 44.9467 113.513 35.4709 102.738 28.5253C91.974 21.5864 77.0433 17.262 60.5 17.262V15.262C77.3699 15.262 92.6892 19.6679 103.822 26.8443C114.944 34.014 122 44.0381 122 55.262H120ZM119.527 60.0672C119.839 58.4934 120 56.8897 120 55.262H122C122 57.0223 121.826 58.7564 121.488 60.4567L119.527 60.0672ZM119.527 60.4567C117.698 51.2448 110.646 42.9524 100.124 36.9385C89.6152 30.9322 75.74 27.262 60.5 27.262V25.262C76.0452 25.262 90.2701 29.0029 101.117 35.2021C111.95 41.3938 119.51 50.1014 121.488 60.0672L119.527 60.4567ZM60.5 27.262C45.26 27.262 31.3848 30.9322 20.8758 36.9385C10.3536 42.9524 3.30226 51.2448 1.47343 60.4567L-0.488288 60.0672C1.49022 50.1014 9.05002 41.3938 19.8834 35.2021C30.7299 29.0029 44.9548 25.262 60.5 25.262V27.262Z" fill="black" mask="url(#path-1-inside-1)"/>
<path d="M111.154 9.61985L64.6244 50.886L128.721 69.2801L111.154 9.61985Z" fill="black"/>
</svg>

