<svg xmlns="http://www.w3.org/2000/svg" width="224.142" height="210.599" viewBox="0 0 224.142 210.599">
  <g id="icon" transform="translate(-9.357 249.61)">
    <path id="Path_19" data-name="Path 19" d="M165-245.9a36.853,36.853,0,0,1-6.6,3.9,41.551,41.551,0,0,0-5.7,4.6,60.483,60.483,0,0,1-8.1,6.1c-7.7,3.9-28.1,22.1-33.7,30.1a25.756,25.756,0,0,1-6.7,6.2c-10,5.2-42.1,43-50.3,59.2l-3.6,7.1-4.4-3.9c-6.6-5.8-16.1-11-18-9.9a2.067,2.067,0,0,1-2.3-.4c-1.5-1.3-12.1,3.4-11.1,4.9.3.6.1,1-.5,1s-.8.4-.5,1c.3.5.1,1-.4,1-1.7,0-1.3,2.1.6,3.7,1.6,1.3,1.6,1.3-.4.3a6.351,6.351,0,0,0-2.4-.8c0,.2-.3,2.1-.5,4.3a15.653,15.653,0,0,1-1,4.4c-.2.2.3,1.3,1.3,2.3,1.5,1.7,1.5,1.8-.3,1.9-1.1,0-1.3.3-.6.6.6.2,1.2,1.5,1.2,2.8,0,2.7,5.4,8.2,12.4,12.8,4.3,2.8,5.6,4.5,9.7,12.7,5.5,11.1,10.3,16.8,12.5,14.9,1.2-1,1.3-.9.8.5-.6,1.5,0,1.6,3.7,1.4,3.4-.3,4.4-.8,4.3-2.1s.2-1.4,1.7-.6c2.7,1.4,3.8,0,10.5-12.7,9.5-18.3,13.6-25.7,16.3-29.5,13.1-18.3,30.1-37.5,37.9-42.6a53.551,53.551,0,0,0,9-8c9.6-11.5,25-24.8,40.7-35,18.8-12.3,20.2-14,21.1-25.6.4-4.9.1-6.2-1.3-7.3-1.7-1.3-1.7-1.4.2-.7,2,.6,2,.6-.1-1.8a23.515,23.515,0,0,1-3.2-5.2c-.8-1.9-1.8-2.7-2.7-2.3a2.75,2.75,0,0,1-2.7-1.2c-.9-1.1-2.8-1.7-6-1.8C171.8-249.7,170-249.1,165-245.9ZM16.6-135.3c-1,1-1.9-.5-1-1.8.6-1.1.8-1.1,1.2,0A2.085,2.085,0,0,1,16.6-135.3Zm27.2,2.8c-.3.3-.9-.2-1.2-1.2-.6-1.4-.5-1.5.5-.6C43.8-133.6,44.1-132.8,43.8-132.5ZM27.1-121.3c1.3,1.6,1.2,1.7-.3.4-1.7-1.3-2.2-2.1-1.4-2.1A6.226,6.226,0,0,1,27.1-121.3Z" fill="#40f"/>
    <path id="Path_20" data-name="Path 20" d="M239.4-111.8c1.9,6.1,1.8,10.5-.2,14.5-3.9,7.5-8.3,6-9.6-3.2-.7-4.5-1.9-5.8-2.9-3.1-.7,1.7.9,7.9,2.9,11.8,2.8,5.4,9,3.1,11.5-4.1.6-1.8,1.5-2.9,1.9-2.4.5.4,1.6,4.3,2.5,8.5,1.1,5.2,2.2,7.8,3.1,7.8,1.8,0,1.9.6-2-13.9-1.9-6.9-3.7-13.8-4-15.4-.4-1.5-1.3-2.7-2.2-2.7C239.2-114,238.9-113.4,239.4-111.8Z" transform="translate(-16.3 -17.815)" fill="#40f"/>
    <path id="Path_21" data-name="Path 21" d="M198-100.3c0,1.5,1.2,4.6,2.5,6.8,2.9,4.7,3.2,10.6,1,18.2-3.1,10.4-9.2,13.7-12.2,6.6-2.6-6.3-.5-14.1,3.4-12.6.7.3,1.3-.2,1.3-1.1,0-2.1-4.3-2.1-6.1,0-.8,1-1.6,5.1-2,9.3-.9,12.7-7.9,24.5-12.8,21.4-1.8-1.2-1.8-1.4,0-9.6,1.2-5.4,1.2-5.9-.7-7.8-1.2-1.1-2.7-1.7-3.6-1.4-2.2.9-4.1,5.9-3.5,9.2.3,1.6.8,4.4,1.2,6.4.6,3.1.3,4.1-2.2,6.9-3.5,3.9-5.5,3.6-8.1-1.1-3.4-6.1-3.9-6.6-5.6-4.9-1,1-1.8,4.5-2.2,9.8-.4,4.5-1.1,8.2-1.5,8.2-1.1,0-3.7-5.2-7.9-15.8-3.3-8.3-4.3-9.8-5.9-8.8-1,.7,8.5,22.6,12.5,28.5,4.5,6.9,5.4,5.5,4.7-7.5-.5-7-.3-9.3.7-9.9.9-.5,1.5-.4,1.8.4,1,2.9,5.5,7.1,7.7,7.1s6.7-4.2,7.7-7.1c.3-.9.9-.9,2.5,0,5.8,3,11.6-1.2,14.8-10.9l1.7-5.2,2.2,2.1a7.271,7.271,0,0,0,4.2,2.1c4.4,0,9.4-7.8,10.9-16.8.4-2.3,1-4.2,1.4-4.2s1.7,2.3,2.9,5.1c1.3,3.2,2.6,4.9,3.4,4.6a1.505,1.505,0,0,0,.9-1.8C211-81.2,212-83,218-83c4.9,0,10.5-1.7,12.1-3.6,1.2-1.5,1-1.6-2-.9-1.8.4-5.8,1-8.8,1.4l-5.5.8.6-3.9c2-12.3,1.9-12.1.5-11.6-1.3.4-2.1,3.4-3.4,14.1-.4,2.9-1.1,4.7-1.8,4.4-.6-.2-3-4.8-5.2-10.2C200.2-102.7,198-105.4,198-100.3ZM171.4-61.5c-.5,2-1.3,3.7-1.9,3.8-1.1.2-1.9-6.7-1-9.1.5-1.4.7-1.4,2.2,0C171.9-65.5,172.1-64.4,171.4-61.5Z" transform="translate(-16.3 -27.011)" fill="#40f"/>
    <path id="Path_22" data-name="Path 22" d="M117-46.3a27.594,27.594,0,0,0-4.5,25.4c2.2,6.2,5.1,8.9,9.5,8.9,4.5,0,8.1-2.6,11.5-8.4,4.7-8.1,8.1-20.6,5.5-20.6-.5,0-1,.9-1,2,0,3.1-4.6,14.8-7.5,18.9-3.2,4.7-7.4,6.8-10.3,5.2-4.4-2.3-6.7-14.8-4.3-22.8,2.1-7,8.6-12.8,7.9-7.1-.4,2.9,1.1,3.8,2.5,1.6.8-1.2.8-2.4-.1-4.2C124.5-51.3,120.8-50.8,117-46.3Z" transform="translate(-7.838 -27.011)" fill="#40f"/>
  </g>
</svg>
