<svg width="204" height="280" viewBox="0 0 204 280" fill="none" xmlns="http://www.w3.org/2000/svg">
<rect x="3" y="3" width="165" height="201" fill="white" stroke="#33CDD7" stroke-width="6"/>
<line x1="37" y1="35.5" x2="134" y2="35.5" stroke="black" stroke-width="7"/>
<line x1="13" y1="56.5" x2="158" y2="56.5" stroke="black" stroke-width="7"/>
<line x1="13" y1="74.5" x2="158" y2="74.5" stroke="black" stroke-width="7"/>
<line x1="13" y1="92.5" x2="158" y2="92.5" stroke="black" stroke-width="7"/>
<line x1="13" y1="110.5" x2="158" y2="110.5" stroke="black" stroke-width="7"/>
<line x1="13" y1="128.5" x2="158" y2="128.5" stroke="black" stroke-width="7"/>
<line x1="13" y1="146.5" x2="158" y2="146.5" stroke="black" stroke-width="7"/>
<line x1="13" y1="166.5" x2="158" y2="166.5" stroke="black" stroke-width="7"/>
<line x1="13" y1="186.5" x2="158" y2="186.5" stroke="black" stroke-width="7"/>
<mask id="path-11-inside-1" fill="white">
<path fill-rule="evenodd" clip-rule="evenodd" d="M200.472 34.1079C202.064 31.8514 201.525 28.7318 199.269 27.14L180.474 13.8821C178.218 12.2904 175.098 12.8292 173.506 15.0857L98.984 120.729C98.7556 121.052 98.8329 121.5 99.1567 121.728V121.728C99.3719 121.88 99.4866 122.138 99.4555 122.399L96.693 145.593C96.2174 149.586 100.411 152.478 103.974 150.615L124.395 139.94C124.599 139.833 124.846 139.85 125.034 139.983V139.983C125.311 140.178 125.695 140.112 125.891 139.835L200.472 34.1079Z"/>
</mask>
<path fill-rule="evenodd" clip-rule="evenodd" d="M200.472 34.1079C202.064 31.8514 201.525 28.7318 199.269 27.14L180.474 13.8821C178.218 12.2904 175.098 12.8292 173.506 15.0857L98.984 120.729C98.7556 121.052 98.8329 121.5 99.1567 121.728V121.728C99.3719 121.88 99.4866 122.138 99.4555 122.399L96.693 145.593C96.2174 149.586 100.411 152.478 103.974 150.615L124.395 139.94C124.599 139.833 124.846 139.85 125.034 139.983V139.983C125.311 140.178 125.695 140.112 125.891 139.835L200.472 34.1079Z" fill="white"/>
<path d="M124.395 139.94L126.711 144.371L124.395 139.94ZM96.693 145.593L91.7281 145.002L96.693 145.593ZM103.974 150.615L106.291 155.046L103.974 150.615ZM99.4555 122.399L104.42 122.991L99.4555 122.399ZM177.592 17.9679L196.386 31.2258L202.151 23.0543L183.356 9.79642L177.592 17.9679ZM103.07 123.611L177.592 17.9679L169.421 12.2036L94.8983 117.846L103.07 123.611ZM101.658 146.184L104.42 122.991L94.4906 121.808L91.7281 145.002L101.658 146.184ZM122.079 135.509L101.658 146.184L106.291 155.046L126.711 144.371L122.079 135.509ZM196.386 31.2258L121.805 136.953L129.976 142.717L204.558 36.9901L196.386 31.2258ZM122.152 144.068C124.686 145.856 128.189 145.251 129.976 142.717L121.805 136.953C123.201 134.973 125.937 134.501 127.916 135.897L122.152 144.068ZM126.711 144.371C125.255 145.133 123.495 145.016 122.152 144.068L127.916 135.897C126.197 134.684 123.943 134.534 122.079 135.509L126.711 144.371ZM91.7281 145.002C90.7769 152.988 99.1633 158.772 106.291 155.046L101.658 146.184C101.642 146.192 101.633 146.196 101.631 146.197C101.628 146.198 101.629 146.197 101.634 146.196C101.638 146.195 101.644 146.194 101.651 146.194C101.657 146.194 101.663 146.194 101.668 146.194C101.679 146.195 101.682 146.197 101.679 146.196C101.677 146.195 101.674 146.194 101.67 146.192C101.666 146.19 101.662 146.187 101.658 146.184C101.654 146.181 101.65 146.178 101.646 146.175C101.643 146.172 101.641 146.17 101.64 146.169C101.638 146.166 101.64 146.169 101.645 146.178C101.647 146.183 101.649 146.188 101.651 146.195C101.653 146.201 101.655 146.207 101.655 146.211C101.656 146.216 101.656 146.217 101.656 146.214C101.656 146.211 101.656 146.202 101.658 146.184L91.7281 145.002ZM96.2745 125.814C94.9895 124.908 94.3046 123.37 94.4906 121.808L104.42 122.991C104.669 120.906 103.754 118.853 102.039 117.643L96.2745 125.814ZM94.8983 117.846C93.0781 120.427 93.6943 123.994 96.2745 125.814L102.039 117.643C103.972 119.006 104.433 121.678 103.07 123.611L94.8983 117.846ZM196.386 31.2258L196.386 31.2258L204.558 36.9901C207.741 32.4771 206.664 26.2378 202.151 23.0543L196.386 31.2258ZM183.356 9.79642C178.843 6.61288 172.604 7.6906 169.421 12.2036L177.592 17.9679L177.592 17.9679L183.356 9.79642Z" fill="#33CDD7" mask="url(#path-11-inside-1)"/>
<path d="M53.8047 220.945C54.5078 220.945 55.0417 222.781 55.4062 226.453C57.3073 237.365 59.2734 245.607 61.3047 251.18H61.5391C62.2943 240.164 62.6719 231.479 62.6719 225.125V224.734C62.6719 223.901 62.5938 223.484 62.4375 223.484C62.6979 222.599 63.1536 222.156 63.8047 222.156C64.612 222.156 65.0156 222.964 65.0156 224.578V225.477C64.4948 246.622 63.7526 257.195 62.7891 257.195L62.1641 257.469C61.4349 257.469 60.6536 256.154 59.8203 253.523C58.4401 250.346 56.9297 245.047 55.2891 237.625C54.8464 235.099 54.5208 233.836 54.3125 233.836V234.07L54.4297 242.82C54.4297 249.643 54.4297 253.927 54.4297 255.672V257.625C54.4297 258.276 54.0521 258.602 53.2969 258.602C52.4635 258.602 52.0469 257.964 52.0469 256.688V255.438C52.0469 254.057 52.0599 249.943 52.0859 243.094L51.9688 233.094C51.9688 225.047 52.3333 221.023 53.0625 221.023L53.8047 220.945ZM71.6172 243.523C73.8568 244.331 75.0417 246.805 75.1719 250.945V251.18C75.0677 254.643 74.1693 256.766 72.4766 257.547L71.3828 257.703C68.5964 257.026 67.2031 254.93 67.2031 251.414V251.297C67.2031 247.495 68.4271 244.956 70.875 243.68L71.6172 243.523ZM69.5078 250.945V251.805C69.7943 254.253 70.5495 255.477 71.7734 255.477C72.4766 254.695 72.8281 253.185 72.8281 250.945V250.711C72.6979 247.924 72.2552 246.401 71.5 246.141C70.1719 246.74 69.5078 248.341 69.5078 250.945ZM80.875 222.938C81.7083 222.938 82.0729 225.451 81.9688 230.477C81.8906 235.477 81.8516 239.018 81.8516 241.102H81.9297L84.2734 240.75C85.0286 240.854 85.4062 241.232 85.4062 241.883C85.4062 242.768 84.5859 243.211 82.9453 243.211L81.9297 243.562L82.2812 256.648C82.1771 257.534 81.7734 257.977 81.0703 257.977C80.237 257.977 79.8203 257.365 79.8203 256.141V253.055L79.7422 244.344L79.5859 243.953L77.8672 244.07C77.138 243.914 76.7734 243.51 76.7734 242.859C76.7734 242.052 77.6719 241.648 79.4688 241.648V241.492C79.4688 238.159 79.5208 232.339 79.625 224.031C79.625 223.38 80.0417 223.016 80.875 222.938ZM90.9141 243.055C92.3724 243.055 93.362 244.37 93.8828 247C93.2057 249.943 91.8125 251.414 89.7031 251.414H89.5469V251.531C89.9635 253.901 91.0703 255.086 92.8672 255.086C94.2474 255.086 95.3672 253.901 96.2266 251.531L97.0859 251.18C97.6589 251.18 98.0234 251.622 98.1797 252.508C98.1797 254.122 96.9167 255.646 94.3906 257.078L92.5156 257.43C90.276 257.43 88.5964 255.828 87.4766 252.625C87.1641 251.349 87.0078 250.294 87.0078 249.461V248.953C87.0078 246.297 88.1146 244.37 90.3281 243.172L90.9141 243.055ZM89.4688 247.977V248.055L90.3281 248.953C90.7188 248.953 91.0833 248.419 91.4219 247.352V246.727C91.2917 245.919 91.1224 245.516 90.9141 245.516H90.6797C90.2891 245.516 89.8854 246.336 89.4688 247.977ZM111.148 219.227C112.216 219.227 112.75 222.091 112.75 227.82C112.906 228.966 112.984 231.961 112.984 236.805L112.867 243.914C113.466 250.529 114.247 254.435 115.211 255.633C115.966 256.154 116.344 256.557 116.344 256.844C116.188 257.469 115.888 257.885 115.445 258.094H114.977C113.674 258.094 112.607 256.375 111.773 252.938C111.617 252.99 111.174 254.057 110.445 256.141C109.508 257.443 108.557 258.094 107.594 258.094C104.286 258.094 102.32 253.706 101.695 244.93L99.7031 221.805C99.9635 221.232 100.328 220.945 100.797 220.945C101.708 220.945 102.164 222.169 102.164 224.617L104.508 249.969C105.341 253.823 106.37 255.75 107.594 255.75C109.026 255.359 109.977 251.297 110.445 243.562C110.003 236.714 109.781 230.529 109.781 225.008V220.438C109.781 219.76 110.237 219.357 111.148 219.227ZM124.078 242.547C126.708 242.547 128.948 244.643 130.797 248.836L131.344 251.414C131.344 254.565 129.286 256.414 125.172 256.961H124.898C123.961 256.961 123.115 256.714 122.359 256.219H121.969C122.359 267 122.555 274.24 122.555 277.938C122.32 278.849 121.904 279.305 121.305 279.305C120.471 279.305 120.055 278.641 120.055 277.312V276.805C120.055 272.794 119.911 265.802 119.625 255.828C119.286 251.401 119.117 248.003 119.117 245.633V244.812C119.117 243.484 119.521 242.82 120.328 242.82H120.875C121.344 243.107 121.578 243.471 121.578 243.914C122.411 243.107 123.023 242.703 123.414 242.703L124.078 242.547ZM122.594 249.109C122.125 252.781 122.815 254.617 124.664 254.617H125.289C127.398 254.617 128.635 253.628 129 251.648V251.297C129 249.552 128.089 247.755 126.266 245.906C125.51 245.229 124.82 244.891 124.195 244.891C123.336 244.839 122.802 246.245 122.594 249.109Z" fill="#33CDD7"/>
</svg>

