<?xml version="1.0" encoding="UTF-8" standalone="no"?>
<svg
   xmlns:dc="http://purl.org/dc/elements/1.1/"
   xmlns:cc="http://creativecommons.org/ns#"
   xmlns:rdf="http://www.w3.org/1999/02/22-rdf-syntax-ns#"
   xmlns:svg="http://www.w3.org/2000/svg"
   xmlns="http://www.w3.org/2000/svg"
   xmlns:sodipodi="http://sodipodi.sourceforge.net/DTD/sodipodi-0.dtd"
   xmlns:inkscape="http://www.inkscape.org/namespaces/inkscape"
   width="210mm"
   height="297mm"
   viewBox="0 0 210 297"
   version="1.1"
   id="svg8"
   inkscape:version="1.0.2-2 (e86c870879, 2021-01-15)"
   sodipodi:docname="icon.svg">
  <defs
     id="defs2" />
  <sodipodi:namedview
     id="base"
     pagecolor="#ffffff"
     bordercolor="#666666"
     borderopacity="1.0"
     inkscape:pageopacity="0.0"
     inkscape:pageshadow="2"
     inkscape:zoom="0.35"
     inkscape:cx="425.71429"
     inkscape:cy="585.71429"
     inkscape:document-units="mm"
     inkscape:current-layer="layer1"
     inkscape:document-rotation="0"
     showgrid="false"
     inkscape:window-width="1624"
     inkscape:window-height="1020"
     inkscape:window-x="228"
     inkscape:window-y="0"
     inkscape:window-maximized="0" />
  <metadata
     id="metadata5">
    <rdf:RDF>
      <cc:Work
         rdf:about="">
        <dc:format>image/svg+xml</dc:format>
        <dc:type
           rdf:resource="http://purl.org/dc/dcmitype/StillImage" />
        <dc:title></dc:title>
      </cc:Work>
    </rdf:RDF>
  </metadata>
  <g
     inkscape:label="Layer 1"
     inkscape:groupmode="layer"
     id="layer1">
    <path
       style="fill:none;fill-opacity:0.967213;stroke:#00ff00;stroke-width:18.165;stroke-linecap:butt;stroke-linejoin:miter;stroke-miterlimit:4;stroke-dasharray:none;stroke-opacity:1"
       d="m 41.57738,127 c 0.755953,1.51191 1.330214,3.12925 2.267857,4.53572 0.139776,0.20966 0.577773,-0.17819 0.755954,0 1.140904,1.1409 2.193676,2.39621 3.023809,3.77976 3.688048,6.14675 -1.547723,-0.80968 1.511903,3.77976 2.385285,3.57792 5.060932,7.90372 7.559524,11.33928 0.838401,1.15281 2.195291,1.86389 3.023809,3.02381 1.116071,1.5625 2.040181,5.64385 3.779764,6.80358 2.40534,1.60356 8.430323,-5.44926 9.071427,-6.04762 6.384031,-5.95843 12.908119,-11.7891 18.898809,-18.14286 13.031164,-13.82093 12.230064,-15.41107 24.190474,-29.48214 10.29831,-12.115663 21.61107,-23.384133 30.99405,-36.285719 4.15252,-5.709722 7.91293,-11.698965 12.09524,-17.386906 2.63847,-3.588324 15.11904,-17.056227 15.11904,-22.67857"
       id="path835" />
    <text
       xml:space="preserve"
       style="font-style:normal;font-weight:normal;font-size:15.8126px;line-height:0;font-family:sans-serif;fill:#00ad00;fill-opacity:1;stroke:none;stroke-width:0.395316;stroke-opacity:1;"
       x="99.348602"
       y="207.54614"
       id="text839"
       transform="scale(0.97267785,1.0280896)"><tspan
         sodipodi:role="line"
         id="tspan837"
         x="99.348602"
         y="207.54614"
         style="font-style:normal;font-variant:normal;font-weight:normal;font-stretch:normal;font-size:37.9504px;line-height:3.75;font-family:Forte;-inkscape-font-specification:Forte;text-align:center;text-anchor:middle;stroke:none;stroke-width:0.395316;stroke-opacity:1;fill:#00ad00;fill-opacity:1;"
         rotate="0 0 0 0 0">ToDo</tspan></text>
  </g>
</svg>
